<svg xmlns="http://www.w3.org/2000/svg" version="1.1" xmlns:xlink="http://www.w3.org/1999/xlink" xmlns:svgjs="http://svgjs.dev/svgjs" width="2000" height="1500" viewBox="0 0 2000 1500"><rect width="2000" height="1500" fill="#000000"></rect><g transform="matrix(0.75,0,0,0.75,249.78667664670684,-0.21332335329350371)"><svg viewBox="0 0 334 334" data-background-color="#000000" preserveAspectRatio="xMidYMid meet" height="2000" width="2000" xmlns="http://www.w3.org/2000/svg" xmlns:xlink="http://www.w3.org/1999/xlink"><g id="tight-bounds" transform="matrix(1,0,0,1,0.04749999999998522,0.04750000000001364)"><svg viewBox="0 0 333.90454557049503 333.90454557049503" height="333.90454557049503" width="333.90454557049503"><rect width="333.905" height="333.905" fill="url(#d4df596a-9ddd-474e-9b05-392b0522129a)" mask="url(#033fb9c8-bf70-4175-a38c-ca78d719353b)" data-fill-palette-color="tertiary"></rect><g><svg></svg></g><g><svg viewBox="0 0 333.90454557049503 333.90454557049503" height="333.90454557049503" width="333.90454557049503"><g><path d="M0 166.952c0-92.205 74.747-166.952 166.952-166.952 92.205 0 166.952 74.747 166.953 166.952 0 92.205-74.747 166.952-166.953 166.953-92.205 0-166.952-74.747-166.952-166.953zM166.952 316.63c82.665 0 149.677-67.013 149.678-149.678 0-82.665-67.013-149.677-149.678-149.677-82.665 0-149.677 67.013-149.677 149.677 0 82.665 67.013 149.677 149.677 149.678z" data-fill-palette-color="tertiary" fill="url(#d4df596a-9ddd-474e-9b05-392b0522129a)" stroke="transparent"></path><ellipse rx="160.27418187383762" ry="160.27418187383762" cx="166.95227278524752" cy="166.95227278524752" fill="url(#d4df596a-9ddd-474e-9b05-392b0522129a)" stroke="transparent" stroke-width="0" fill-opacity="1" data-fill-palette-color="tertiary"></ellipse></g><g transform="matrix(1,0,0,1,88.20667449653278,71.17305217166896)"><svg viewBox="0 0 157.49119657742946 191.55844122715712" height="191.55844122715712" width="157.49119657742946"><g><svg viewBox="0 0 157.49119657742946 191.55844122715712" height="191.55844122715712" width="157.49119657742946"><g><svg viewBox="0 0 157.49119657742946 191.55844122715712" height="191.55844122715712" width="157.49119657742946"><g id="textblocktransform"><svg viewBox="0 0 157.49119657742946 191.55844122715712" height="191.55844122715712" width="157.49119657742946" id="textblock"><g><svg viewBox="0 0 157.49119657742946 191.55844122715712" height="191.55844122715712" width="157.49119657742946"><g transform="matrix(1,0,0,1,0,0)"><svg width="157.49119657742946" viewBox="3.95 -34.3 28.2 34.3" height="191.55844122715712" data-palette-color="#000000"><path d="M3.95 0L3.95-34.3 8.7-34.3 8.7-19.6 27.4-19.6 27.4-34.3 32.15-34.3 32.15 0 27.4 0 27.4-15.45 8.7-15.45 8.7 0 3.95 0Z" opacity="1" transform="matrix(1,0,0,1,0,0)" fill="#000000" class="wordmark-text-0" data-fill-palette-color="quaternary" id="text-0"></path></svg></g></svg></g></svg></g></svg></g></svg></g></svg></g></svg></g><defs></defs><mask id="033fb9c8-bf70-4175-a38c-ca78d719353b"><g id="SvgjsG2070"><svg viewBox="0 0 333.90454557049503 333.90454557049503" height="333.90454557049503" width="333.90454557049503"><g><svg></svg></g><g><svg viewBox="0 0 333.90454557049503 333.90454557049503" height="333.90454557049503" width="333.90454557049503"><g><path d="M0 166.952c0-92.205 74.747-166.952 166.952-166.952 92.205 0 166.952 74.747 166.953 166.952 0 92.205-74.747 166.952-166.953 166.953-92.205 0-166.952-74.747-166.952-166.953zM166.952 316.63c82.665 0 149.677-67.013 149.678-149.678 0-82.665-67.013-149.677-149.678-149.677-82.665 0-149.677 67.013-149.677 149.677 0 82.665 67.013 149.677 149.677 149.678z" fill="white" stroke="transparent"></path><ellipse rx="160.27418187383762" ry="160.27418187383762" cx="166.95227278524752" cy="166.95227278524752" fill="white" stroke="transparent" stroke-width="0" fill-opacity="1"></ellipse></g><g transform="matrix(1,0,0,1,88.20667449653278,71.17305217166896)"><svg viewBox="0 0 157.49119657742946 191.55844122715712" height="191.55844122715712" width="157.49119657742946"><g><svg viewBox="0 0 157.49119657742946 191.55844122715712" height="191.55844122715712" width="157.49119657742946"><g><svg viewBox="0 0 157.49119657742946 191.55844122715712" height="191.55844122715712" width="157.49119657742946"><g id="SvgjsG2069"><svg viewBox="0 0 157.49119657742946 191.55844122715712" height="191.55844122715712" width="157.49119657742946" id="SvgjsSvg2068"><g><svg viewBox="0 0 157.49119657742946 191.55844122715712" height="191.55844122715712" width="157.49119657742946"><g transform="matrix(1,0,0,1,0,0)"><svg width="157.49119657742946" viewBox="3.95 -34.3 28.2 34.3" height="191.55844122715712" data-palette-color="#000000"><path d="M3.95 0L3.95-34.3 8.7-34.3 8.7-19.6 27.4-19.6 27.4-34.3 32.15-34.3 32.15 0 27.4 0 27.4-15.45 8.7-15.45 8.7 0 3.95 0Z" opacity="1" transform="matrix(1,0,0,1,0,0)" fill="black" class="wordmark-text-0" id="SvgjsPath2067"></path></svg></g></svg></g></svg></g></svg></g></svg></g></svg></g></svg></g><defs><mask></mask></defs></svg><rect width="333.90454557049503" height="333.90454557049503" fill="black" stroke="none" visibility="hidden"></rect></g></mask><linearGradient x1="0.054" x2="0.941" y1="0.5" y2="0.5" id="d4df596a-9ddd-474e-9b05-392b0522129a"><stop stop-color="#864d25" offset="0"></stop><stop stop-color="#f1c4b3" offset="0.498"></stop><stop stop-color="#864d25" offset="1"></stop></linearGradient></svg><rect width="333.90454557049503" height="333.90454557049503" fill="none" stroke="none" visibility="hidden"></rect></g></svg></g></svg>